<svg width="197" height="277" viewBox="0 0 197 277" fill="none" xmlns="http://www.w3.org/2000/svg">
<path d="M29.9508 2.96223C33.9066 6.04889 36.1505 9.71043 37.0638 14.6164C37.2827 17.7631 37.2839 20.9049 37.2894 24.0582C37.296 25.0124 37.3032 25.9667 37.3109 26.9209C37.3301 29.4998 37.3409 32.0787 37.3501 34.6576C37.3612 37.3571 37.3801 40.0566 37.3982 42.756C37.4313 47.8626 37.4573 52.9692 37.4808 58.0758C37.5079 63.8917 37.5428 69.7076 37.5784 75.5235C37.6514 87.4823 37.7146 99.4413 37.7712 111.4C38.2013 110.921 38.6314 110.441 39.0745 109.947C39.6425 109.317 40.2105 108.687 40.7956 108.038C41.357 107.413 41.9184 106.789 42.4968 106.146C44.564 103.931 46.7426 101.995 49.1344 100.135C49.5806 99.7852 50.0267 99.4352 50.4864 99.0747C55.3588 95.3556 60.601 92.4221 66.0686 89.6589C67.0685 89.1423 67.0685 89.1423 68.0886 88.6152C71.8658 86.7853 75.761 85.4753 79.7751 84.2674C80.2415 84.1253 80.7079 83.9831 81.1884 83.8367C89.0649 81.5817 96.988 80.986 105.154 81.0238C106.055 81.0277 106.955 81.0317 107.883 81.0358C114.668 81.1223 121.063 81.5776 127.615 83.347C128.122 83.4826 128.629 83.6182 129.151 83.7579C144.325 87.9789 156.51 95.8364 167.939 106.491C168.357 106.86 168.774 107.229 169.205 107.609C186.966 123.965 195.185 149.423 196.325 172.836C197.347 200.887 188.794 226.581 169.467 247.253C168.963 247.784 168.459 248.315 167.939 248.861C167.515 249.327 167.091 249.793 166.654 250.272C156.991 260.473 143.946 267.483 130.71 271.961C130.155 272.151 129.599 272.341 129.027 272.536C118.844 275.764 108.656 276.602 98.0358 276.52C97.4481 276.518 96.8605 276.516 96.255 276.514C87.346 276.466 78.8859 276.003 70.3132 273.408C69.813 273.265 69.3128 273.122 68.7975 272.975C53.5735 268.542 40.7602 260.281 29.282 249.563C28.7686 249.107 28.2552 248.651 27.7262 248.182C10.6067 232.337 1.08104 207.565 0.209982 184.675C0.182946 182.821 0.176131 180.968 0.177895 179.114C0.175793 178.41 0.173691 177.707 0.171526 176.982C0.165429 174.642 0.164317 172.302 0.163257 169.962C0.15998 168.278 0.156425 166.593 0.152614 164.908C0.143364 160.345 0.138752 155.783 0.135629 151.22C0.133668 148.368 0.130668 145.516 0.127489 142.664C0.118874 134.759 0.111584 126.853 0.109185 118.947C0.109029 118.443 0.108875 117.938 0.108715 117.418C0.108561 116.912 0.108404 116.406 0.108245 115.885C0.107932 114.86 0.107616 113.835 0.107298 112.81C0.107142 112.301 0.106985 111.793 0.106823 111.269C0.104027 103.022 0.0916653 94.774 0.0752086 86.5265C0.0584249 78.0463 0.0496162 69.5662 0.0487915 61.086C0.0481438 56.3296 0.0440951 51.5732 0.0312341 46.8168C0.0195886 42.3463 0.0180437 37.8758 0.0242581 33.4053C0.0248037 31.7655 0.0217233 30.1257 0.0147373 28.486C0.00575492 26.2462 0.00988811 24.0069 0.0172713 21.7671C0.011572 21.1197 0.00587208 20.4722 0 19.8052C0.0470495 13.6954 1.68769 9.11215 5.99199 4.63337C12.2936 -1.10598 22.6764 -1.33562 29.9508 2.96223ZM50.1707 135.111C38.0605 150.288 33.6973 169.259 35.8645 188.341C38.3256 205.102 46.1109 221.796 60.1176 232.159C70.2962 239.254 81.7873 244.106 94.3659 244.653C94.8876 244.681 95.4092 244.709 95.9466 244.738C113.325 245.217 128.873 239.112 141.452 227.408C154.242 215.003 160.661 197.676 161.077 180.16C161.169 162.71 156.156 147.087 144.594 133.843C144.143 133.263 143.693 132.684 143.229 132.087C136.841 124.452 126.492 118.572 117.004 115.608C116.007 115.295 116.007 115.295 114.989 114.975C90.9121 108.682 66.405 116.83 50.1707 135.111Z" fill="#FE9338"/>
<path d="M135.834 133.857C146.856 142.939 154.803 156.091 156.62 170.312C158.049 188.34 154.267 203.933 142.471 218.003C133.296 228.638 119.12 236.003 105.051 237.098C86.6369 238.007 71.6075 233.607 57.4853 221.633C46.9672 211.88 40.3364 197.841 39.6226 183.627C39.1145 165.715 44.1501 150.512 56.6508 137.262C78.6701 116.456 112.07 115.678 135.834 133.857Z" fill="#5B3511"/>
<path d="M55.1473 173.907C57.5791 174.52 57.5791 174.52 58.994 176.624C59.2336 178.472 59.4168 180.293 59.5688 182.147C60.4562 190.804 63.3324 197.898 68.8981 204.677C69.251 205.115 69.6039 205.553 69.9675 206.003C76.204 212.918 85.8481 216.997 95.0289 217.652C95.6627 217.674 96.2965 217.696 96.9495 217.718C98.9314 218.058 99.5724 218.495 100.733 220.107C100.998 222.605 100.998 222.605 100.733 225.016C96.7761 227.631 91.6658 226.847 87.1366 225.986C74.5929 222.508 63.4589 215.33 56.8717 203.976C51.9771 194.971 49.3288 186.265 50.5048 175.923C51.9833 173.72 52.3736 173.81 55.1473 173.907Z" fill="#FAF9F8"/>
<path d="M65.3611 176.624C68.5838 177.014 68.5838 177.014 69.6057 178.027C69.7997 179.53 69.9727 181.035 70.1363 182.542C71.2926 190.732 75.0009 197.144 81.6404 202.269C86.5636 205.482 91.2496 206.969 97.1238 207.266C98.6105 207.483 98.6105 207.483 100.025 208.886C99.6323 212.081 99.6323 212.081 98.6105 213.094C90.7264 213.982 82.7622 210.055 76.4894 205.656C70.0824 200.581 65.3232 192.381 63.9462 184.339C63.7452 182.213 63.5924 180.14 63.9462 178.027C64.4131 177.564 64.88 177.101 65.3611 176.624Z" fill="#F7F6F4"/>
</svg>
