<svg width="2000" height="2000" viewBox="0 0 2000 2000" fill="none" xmlns="http://www.w3.org/2000/svg">
<rect width="2000" height="2000" fill="#E2E2E2"/>
<g clip-path="url(#clip0_890_19)">
<path d="M323.221 864.632C327.177 867.719 329.421 871.38 330.334 876.286C330.553 879.433 330.554 882.575 330.56 885.728C330.566 886.682 330.574 887.636 330.581 888.591C330.601 891.17 330.611 893.748 330.621 896.327C330.632 899.027 330.651 901.726 330.669 904.426C330.702 909.532 330.728 914.639 330.751 919.745C330.778 925.561 330.813 931.377 330.849 937.193C330.922 949.152 330.985 961.111 331.042 973.07C331.472 972.59 331.902 972.111 332.345 971.617C332.913 970.987 333.481 970.356 334.066 969.707C334.628 969.083 335.189 968.459 335.767 967.816C337.834 965.6 340.013 963.664 342.405 961.805C342.851 961.455 343.297 961.105 343.757 960.744C348.629 957.025 353.872 954.092 359.339 951.329C360.339 950.812 360.339 950.812 361.359 950.285C365.136 948.455 369.031 947.145 373.046 945.937C373.512 945.795 373.978 945.653 374.459 945.506C382.335 943.251 390.259 942.656 398.425 942.693C399.325 942.697 400.226 942.701 401.153 942.705C407.938 942.792 414.334 943.247 420.886 945.017C421.393 945.152 421.899 945.288 422.421 945.428C437.596 949.649 449.781 957.506 461.21 968.161C461.627 968.529 462.045 968.898 462.475 969.278C480.237 985.635 488.455 1011.09 489.596 1034.51C490.618 1062.56 482.065 1088.25 462.738 1108.92C462.233 1109.45 461.729 1109.98 461.21 1110.53C460.786 1111 460.361 1111.46 459.925 1111.94C450.261 1122.14 437.217 1129.15 423.981 1133.63C423.425 1133.82 422.87 1134.01 422.298 1134.21C412.114 1137.43 401.926 1138.27 391.306 1138.19C390.719 1138.19 390.131 1138.19 389.526 1138.18C380.616 1138.14 372.156 1137.67 363.584 1135.08C363.084 1134.93 362.583 1134.79 362.068 1134.64C346.844 1130.21 334.031 1121.95 322.553 1111.23C322.039 1110.78 321.526 1110.32 320.997 1109.85C303.877 1094.01 294.352 1069.23 293.48 1046.34C293.453 1044.49 293.447 1042.64 293.448 1040.78C293.446 1040.08 293.444 1039.38 293.442 1038.65C293.436 1036.31 293.435 1033.97 293.434 1031.63C293.43 1029.95 293.427 1028.26 293.423 1026.58C293.414 1022.02 293.409 1017.45 293.406 1012.89C293.404 1010.04 293.401 1007.19 293.398 1004.33C293.389 996.428 293.382 988.523 293.38 980.617C293.38 980.112 293.379 979.608 293.379 979.087C293.379 978.582 293.379 978.076 293.379 977.554C293.378 976.529 293.378 975.504 293.378 974.479C293.378 973.971 293.377 973.463 293.377 972.939C293.375 964.691 293.362 956.444 293.346 948.196C293.329 939.716 293.32 931.236 293.319 922.756C293.319 917.999 293.315 913.243 293.302 908.486C293.29 904.016 293.289 899.546 293.295 895.075C293.295 893.435 293.292 891.795 293.285 890.156C293.276 887.916 293.28 885.677 293.288 883.437C293.282 882.789 293.276 882.142 293.271 881.475C293.318 875.365 294.958 870.782 299.262 866.303C305.564 860.564 315.947 860.334 323.221 864.632ZM343.441 996.781C331.331 1011.96 326.968 1030.93 329.135 1050.01C331.596 1066.77 339.381 1083.47 353.388 1093.83C363.567 1100.92 375.058 1105.78 387.636 1106.32C388.158 1106.35 388.68 1106.38 389.217 1106.41C406.595 1106.89 422.144 1100.78 434.722 1089.08C447.512 1076.67 453.931 1059.35 454.348 1041.83C454.44 1024.38 449.426 1008.76 437.864 995.513C437.414 994.933 436.963 994.354 436.499 993.756C430.112 986.122 419.763 980.242 410.274 977.278C409.277 976.965 409.277 976.965 408.26 976.645C384.183 970.351 359.676 978.5 343.441 996.781Z" fill="#ADADAD"/>
<path d="M912.155 946.296C919.333 951.651 921.801 960.694 924.413 968.892C924.721 969.84 925.029 970.788 925.337 971.735C926.16 974.268 926.974 976.802 927.786 979.338C928.643 982.006 929.507 984.672 930.371 987.338C935.274 1002.5 940.109 1017.67 944.928 1032.86C948.138 1042.97 951.385 1053.07 954.689 1063.15C954.885 1063.75 955.081 1064.34 955.282 1064.96C955.821 1066.61 956.361 1068.25 956.903 1069.89C957.06 1070.37 957.217 1070.85 957.378 1071.35C957.926 1073 958.455 1074.6 959.243 1076.17C961.283 1069.38 963.321 1062.59 965.359 1055.8C965.702 1054.65 966.046 1053.51 966.389 1052.36C970.888 1037.37 975.374 1022.38 979.836 1007.38C980.255 1005.97 980.674 1004.56 981.093 1003.15C982.934 996.964 984.773 990.779 986.609 984.593C987.374 982.018 988.14 979.444 988.906 976.869C989.26 975.676 989.615 974.483 989.968 973.289C996.695 950.588 996.695 950.588 1003.81 945.718C1008.66 943.273 1015.98 943.43 1021.14 945.061C1024.72 946.733 1027.6 949.296 1029.3 952.864C1031.47 958.865 1033.04 964.994 1034.61 971.166C1034.92 972.367 1035.23 973.567 1035.53 974.767C1036.19 977.326 1036.85 979.885 1037.5 982.445C1038.53 986.472 1039.56 990.498 1040.59 994.524C1041.66 998.666 1042.72 1002.81 1043.78 1006.95C1047.07 1019.76 1050.37 1032.57 1053.69 1045.37C1054.42 1048.18 1055.14 1050.99 1055.87 1053.8C1056.41 1055.89 1056.95 1057.99 1057.5 1060.08C1057.74 1061.04 1057.99 1062 1058.24 1062.96C1059.68 1068.57 1059.68 1068.57 1061.27 1074.14C1061.82 1076.17 1061.82 1076.17 1061.82 1078.97C1062.29 1078.97 1062.75 1078.97 1063.24 1078.97C1063.31 1078.57 1063.38 1078.16 1063.45 1077.75C1064.38 1072.74 1065.83 1068 1067.44 1063.17C1067.86 1061.87 1068.29 1060.57 1068.71 1059.27C1069.17 1057.89 1069.62 1056.51 1070.08 1055.13C1071.53 1050.74 1072.96 1046.35 1074.4 1041.95C1074.73 1040.94 1075.06 1039.94 1075.39 1038.93C1078.52 1029.36 1081.59 1019.78 1084.64 1010.19C1085.43 1007.71 1086.22 1005.23 1087.01 1002.75C1089.25 995.705 1091.49 988.655 1093.7 981.598C1094.61 978.724 1095.51 975.852 1096.42 972.981C1096.84 971.659 1097.26 970.337 1097.67 969.014C1101.61 956.364 1101.61 956.364 1104.97 951.329C1105.37 950.692 1105.76 950.056 1106.17 949.4C1110.16 945.548 1114.38 944.086 1119.92 943.921C1125.4 944.139 1128.54 945.321 1132.48 949.049C1135.95 954.317 1135.74 959.336 1134.69 965.355C1133.3 970.682 1131.44 975.882 1129.67 981.094C1129.14 982.682 1128.61 984.27 1128.08 985.858C1126.8 989.709 1125.5 993.557 1124.21 997.404C1123.15 1000.53 1122.1 1003.66 1121.05 1006.79C1120.9 1007.24 1120.75 1007.68 1120.59 1008.14C1120.29 1009.05 1119.98 1009.96 1119.68 1010.87C1116.83 1019.37 1113.97 1027.86 1111.1 1036.35C1108.65 1043.62 1106.21 1050.9 1103.77 1058.18C1100.93 1066.66 1098.09 1075.13 1095.24 1083.59C1094.94 1084.5 1094.63 1085.4 1094.33 1086.3C1094.1 1086.97 1094.1 1086.97 1093.87 1087.65C1092.82 1090.77 1091.77 1093.9 1090.73 1097.02C1089.32 1101.23 1087.9 1105.44 1086.48 1109.64C1085.96 1111.19 1085.44 1112.73 1084.93 1114.27C1084.22 1116.38 1083.51 1118.49 1082.79 1120.59C1082.59 1121.2 1082.39 1121.81 1082.18 1122.44C1080.15 1128.31 1077.07 1133.04 1071.36 1135.84C1065.69 1137.9 1060.2 1137.55 1054.75 1135.08C1049.06 1131.85 1046.68 1127.73 1044.9 1121.59C1044.41 1119.8 1043.93 1118.01 1043.46 1116.22C1043.19 1115.23 1042.92 1114.24 1042.65 1113.24C1042.07 1111.1 1041.5 1108.96 1040.93 1106.81C1040.01 1103.39 1039.09 1099.97 1038.17 1096.55C1037.19 1092.91 1036.2 1089.27 1035.23 1085.64C1031.65 1072.33 1028.02 1059.03 1024.38 1045.73C1023.5 1042.49 1022.62 1039.25 1021.73 1036.01C1021.06 1033.55 1020.39 1031.09 1019.72 1028.64C1019.41 1027.51 1019.1 1026.37 1018.79 1025.24C1017.96 1022.17 1017.12 1019.1 1016.27 1016.03C1015.97 1014.92 1015.66 1013.81 1015.36 1012.7C1014.88 1010.93 1014.39 1009.17 1013.9 1007.4C1013.68 1006.58 1013.68 1006.58 1013.45 1005.74C1012.92 1003.23 1012.92 1003.23 1011.59 1001.12C1011.45 1001.61 1011.32 1002.09 1011.17 1002.59C1010.74 1004.09 1010.32 1005.59 1009.89 1007.09C1009.37 1008.9 1008.85 1010.71 1008.33 1012.52C1007 1017.17 1005.68 1021.81 1004.35 1026.46C1003.56 1029.19 1002.78 1031.92 1002 1034.65C1001.84 1035.21 1001.68 1035.76 1001.52 1036.33C999.063 1044.92 996.609 1053.52 994.156 1062.11C991.785 1070.41 989.407 1078.72 987.026 1087.02C985.54 1092.2 984.061 1097.38 982.59 1102.57C981.743 1105.55 980.89 1108.53 980.036 1111.51C979.65 1112.85 979.268 1114.2 978.888 1115.55C978.375 1117.37 977.854 1119.18 977.33 1121C977.114 1121.78 977.114 1121.78 976.894 1122.57C975.121 1128.63 971.579 1132.91 966.096 1136C960.332 1137.46 955.102 1137.77 949.795 1134.87C944.855 1131.77 942.284 1128.66 940.278 1123.15C940.1 1122.66 939.922 1122.18 939.738 1121.68C937.392 1115.21 935.207 1108.69 933.015 1102.17C932.529 1100.73 932.043 1099.29 931.556 1097.85C930.248 1093.97 928.942 1090.1 927.637 1086.22C926.82 1083.79 926.002 1081.36 925.184 1078.94C922.327 1070.46 919.473 1061.98 916.62 1053.5C913.967 1045.61 911.308 1037.72 908.647 1029.83C906.355 1023.04 904.067 1016.25 901.783 1009.46C900.421 1005.41 899.058 1001.36 897.691 997.312C896.406 993.51 895.127 989.706 893.851 985.901C893.384 984.51 892.914 983.118 892.443 981.728C885.139 960.167 885.139 960.167 889.207 949.926C890.753 947.354 892.433 945.743 895.303 944.672C900.807 943.509 907.254 943.249 912.155 946.296Z" fill="#ADADAD"/>
<path d="M1250.13 942.694C1250.9 942.696 1250.9 942.696 1251.69 942.699C1275.55 942.824 1296.42 950.257 1313.84 966.67C1332.07 985.775 1339.78 1012.4 1339.31 1038.35C1338.93 1042.76 1337.37 1046.35 1334.18 1049.52C1330.13 1052.18 1327.16 1053.13 1322.35 1053.13C1321.78 1053.14 1321.21 1053.14 1320.63 1053.14C1318.7 1053.15 1316.78 1053.16 1314.86 1053.17C1313.49 1053.17 1312.12 1053.18 1310.74 1053.19C1307 1053.21 1303.27 1053.22 1299.53 1053.23C1295.63 1053.25 1291.73 1053.27 1287.82 1053.29C1280.43 1053.32 1273.04 1053.35 1265.64 1053.38C1257.23 1053.42 1248.81 1053.46 1240.4 1053.5C1223.08 1053.58 1205.77 1053.65 1188.45 1053.72C1188.88 1055.37 1189.31 1057.02 1189.75 1058.67C1189.87 1059.13 1189.99 1059.59 1190.11 1060.06C1194.2 1075.51 1204.19 1089.16 1218.13 1097.31C1234.42 1106.25 1253.69 1109.83 1271.9 1104.9C1280.79 1102.32 1289.19 1098.98 1296.84 1093.75C1302.01 1090.24 1306.8 1089.54 1312.96 1090.19C1318.56 1091.88 1322 1095.86 1324.99 1100.71C1326.31 1104.65 1326.21 1108.45 1324.76 1112.33C1314.41 1127.49 1289.43 1133.84 1272.64 1137.18C1269.09 1137.77 1265.61 1138.01 1262.02 1138.05C1261.49 1138.06 1260.96 1138.06 1260.41 1138.07C1248.69 1138.19 1237.34 1138.17 1225.95 1135.08C1225.11 1134.85 1225.11 1134.85 1224.26 1134.62C1199.57 1127.71 1178.82 1111.65 1165.99 1089.67C1152.31 1065.23 1150.96 1034.4 1158.61 1007.86C1165.65 985.175 1180.96 965.346 1202.14 954.046C1217.3 946.226 1233.03 942.601 1250.13 942.694ZM1204.01 992.006C1203.54 992.467 1203.07 992.928 1202.58 993.403C1194.73 1001.63 1190.05 1013.2 1188.45 1024.27C1226.97 1024.27 1265.49 1024.27 1305.18 1024.27C1303.89 1010.24 1298.38 996.448 1287.71 986.702C1276.5 977.505 1264.67 973.48 1250.22 973.552C1249 973.557 1249 973.557 1247.76 973.563C1230.5 973.799 1216.16 979.979 1204.01 992.006Z" fill="#ADADAD"/>
<path d="M786.187 942.737C786.692 942.737 787.197 942.736 787.717 942.736C811.103 942.771 832.589 949.839 849.458 966.276C867.135 984.084 875.048 1008.75 875.279 1033.38C875.3 1034.11 875.32 1034.85 875.341 1035.6C875.386 1040.95 874.559 1044.73 870.993 1048.83C870.598 1049.14 870.203 1049.46 869.796 1049.78C869.403 1050.1 869.01 1050.43 868.605 1050.76C865.18 1052.98 862.029 1053.22 858.023 1053.19C857.451 1053.19 856.879 1053.19 856.289 1053.19C854.374 1053.2 852.459 1053.19 850.544 1053.18C849.171 1053.18 847.797 1053.18 846.424 1053.18C842.695 1053.18 838.967 1053.17 835.239 1053.16C831.342 1053.16 827.446 1053.15 823.549 1053.15C816.171 1053.15 808.792 1053.14 801.414 1053.12C793.014 1053.11 784.613 1053.1 776.213 1053.09C758.934 1053.08 741.654 1053.05 724.375 1053.02C724.903 1055.01 725.438 1056.99 725.977 1058.97C726.124 1059.52 726.27 1060.07 726.421 1060.64C730.738 1076.38 741.384 1089.63 755.502 1097.91C765.758 1103.54 776.426 1106.09 788.044 1107.02C788.658 1107.08 789.273 1107.13 789.906 1107.18C806.996 1107.86 822.711 1100.41 836.84 1091.71C841.021 1089.33 846.693 1089.45 851.279 1090.62C855.979 1092.7 859.556 1096.74 861.617 1101.37C862.821 1105.11 862.516 1108.8 860.702 1112.29C850.397 1127.23 825.908 1133.97 808.978 1137.19C803.542 1138.13 798.141 1138.2 792.636 1138.16C790.921 1138.15 789.207 1138.16 787.492 1138.17C777.578 1138.18 768.015 1136.86 758.508 1133.98C757.929 1133.81 757.35 1133.63 756.753 1133.45C745.719 1129.94 735.509 1124.76 726.497 1117.54C725.867 1117.05 725.867 1117.05 725.224 1116.54C719.509 1112.01 714.581 1107.29 710.226 1101.41C709.697 1100.72 709.168 1100.02 708.623 1099.3C692.063 1076.63 687.983 1048.73 691.833 1021.46C695.311 1001.73 703.38 984.851 717.3 970.265C718.106 969.398 718.106 969.398 718.928 968.514C736.434 950.306 761.356 942.758 786.187 942.737ZM739.938 992.006C732.469 1000.47 725.082 1012.77 725.082 1024.27C763.602 1024.27 802.122 1024.27 841.809 1024.27C841.301 1019.74 840.701 1016.03 839.244 1011.82C839.056 1011.27 838.868 1010.73 838.674 1010.16C833.592 995.892 824.225 984.714 810.553 977.868C787.359 967.229 757.284 974.186 739.938 992.006Z" fill="#ADADAD"/>
<path d="M1676.58 954.835C1677.3 955.24 1678.02 955.645 1678.76 956.063C1686.67 960.802 1697.43 968.737 1699.93 977.979C1700.55 982.782 1699.98 986.632 1697.1 990.603C1693.42 994.332 1689.34 996.266 1684.1 996.477C1676.06 996.161 1670.28 992.449 1664.29 987.491C1650.42 976.146 1633.46 974.054 1615.99 975.368C1607.8 976.328 1597.75 978.387 1591.69 984.291C1588.52 988.437 1587.62 992.543 1587.85 997.688C1588.6 1002.74 1591 1007.43 1595.14 1010.54C1607.35 1018.48 1623.51 1020.88 1637.51 1023.91C1658.31 1028.44 1683.16 1035.18 1696.25 1053.4C1697.33 1055.11 1698.3 1056.84 1699.22 1058.63C1699.49 1059.17 1699.77 1059.7 1700.05 1060.25C1706.13 1072.91 1704.96 1088 1700.35 1100.9C1694.19 1115.96 1681.24 1125.77 1666.68 1132.27C1654.79 1137.09 1642.16 1138.24 1629.44 1138.16C1627.51 1138.15 1625.58 1138.16 1623.64 1138.17C1612.36 1138.18 1601.2 1136.99 1590.32 1133.94C1589.68 1133.76 1589.05 1133.59 1588.39 1133.4C1573.78 1129.18 1554.27 1121.7 1545.71 1108.43C1543.18 1103.5 1543.1 1098.81 1544.78 1093.58C1547.14 1088.17 1551.94 1084.39 1557.39 1082.24C1562.73 1080.83 1567.77 1081.29 1572.66 1083.78C1575.14 1085.26 1577.11 1086.93 1579.09 1089.01C1591.6 1100.86 1609.42 1105.43 1626.31 1105.8C1639.06 1105.5 1653.75 1104.03 1663.1 1094.39C1666.72 1089.86 1667.81 1085.59 1667.69 1079.83C1666.91 1074.07 1663.82 1068.91 1659.2 1065.35C1647.6 1057.87 1634.43 1055.11 1621.09 1052.32C1600.64 1048.04 1580.09 1042.87 1564.81 1027.77C1564.31 1027.29 1563.8 1026.81 1563.29 1026.32C1554.61 1017.42 1551.7 1006.13 1551.78 994.06C1552.1 982.445 1556.28 971.923 1564.46 963.484C1574.86 953.822 1587.17 948.34 1600.89 945.017C1601.38 944.892 1601.87 944.767 1602.38 944.639C1626.46 938.769 1655.16 942.765 1676.58 954.835Z" fill="#ADADAD"/>
<path d="M429.104 995.526C440.126 1004.61 448.073 1017.76 449.891 1031.98C451.319 1050.01 447.537 1065.6 435.742 1079.67C426.566 1090.31 412.391 1097.67 398.321 1098.77C379.907 1099.68 364.878 1095.28 350.756 1083.3C340.238 1073.55 333.607 1059.51 332.893 1045.3C332.385 1027.38 337.421 1012.18 349.921 998.932C371.941 978.126 405.341 977.348 429.104 995.526Z" fill="#838383"/>
<path d="M673.003 950.997C676.487 954.142 678.221 957.015 678.613 961.673C678.438 966.521 677.269 970.34 673.661 973.727C668.343 977.859 663.606 977.307 657.169 976.577C655.309 976.324 653.454 976.048 651.598 975.766C631.506 972.753 610.488 974.355 593.5 986.395C593.008 986.741 592.517 987.086 592.01 987.442C584.746 993.069 580.599 1002.04 579.351 1010.94C579.288 1012.52 579.26 1014.11 579.258 1015.69C579.257 1016.15 579.255 1016.61 579.253 1017.08C579.249 1018.61 579.25 1020.14 579.251 1021.67C579.248 1022.78 579.246 1023.88 579.243 1024.98C579.238 1027.35 579.234 1029.72 579.232 1032.08C579.227 1035.83 579.216 1039.58 579.202 1043.33C579.198 1044.62 579.193 1045.9 579.189 1047.19C579.187 1047.83 579.184 1048.48 579.182 1049.14C579.152 1057.87 579.129 1066.59 579.12 1075.32C579.114 1081.21 579.098 1087.1 579.071 1092.99C579.057 1096.1 579.049 1099.22 579.052 1102.33C579.055 1105.26 579.046 1108.19 579.026 1111.13C579.021 1112.2 579.021 1113.27 579.026 1114.34C579.082 1127.3 579.082 1127.3 574.576 1132.22C569.979 1136.46 564.943 1137.1 558.835 1137.18C553.639 1136.85 549.784 1135.26 546.102 1131.57C542.497 1126.87 542.46 1122.14 542.465 1116.49C542.463 1115.82 542.461 1115.14 542.459 1114.45C542.452 1112.19 542.451 1109.93 542.45 1107.66C542.447 1106.04 542.444 1104.42 542.44 1102.8C542.43 1098.4 542.426 1093.99 542.423 1089.59C542.421 1086.83 542.418 1084.08 542.415 1081.33C542.406 1073.7 542.399 1066.08 542.396 1058.45C542.396 1057.97 542.396 1057.48 542.396 1056.97C542.396 1056.49 542.396 1056 542.395 1055.49C542.395 1054.5 542.395 1053.51 542.394 1052.52C542.394 1052.03 542.394 1051.54 542.394 1051.03C542.391 1043.07 542.379 1035.11 542.362 1027.16C542.346 1018.98 542.337 1010.8 542.336 1002.62C542.335 998.032 542.331 993.443 542.318 988.853C542.307 984.536 542.305 980.219 542.311 975.901C542.312 974.318 542.309 972.736 542.302 971.153C542.293 968.988 542.297 966.824 542.304 964.66C542.299 964.036 542.293 963.413 542.287 962.771C542.327 957.805 543.078 953.268 546.323 949.356C552.774 944.15 558.523 943.563 566.617 944.315C571.13 945.379 573.961 947.446 576.521 951.329C579.022 956.287 579.126 961.277 579.351 966.758C579.79 966.282 580.228 965.807 580.68 965.317C601.587 943.534 647.143 930.201 673.003 950.997Z" fill="#ADADAD"/>
<path d="M1513.87 950.233C1516.96 952.785 1519.73 955.613 1520.24 959.745C1520.62 964.657 1519.5 968.681 1516.48 972.588C1513.21 975.824 1510.03 976.979 1505.5 977.333C1500.93 977.221 1496.43 976.24 1491.94 975.425C1474.28 972.292 1452.97 974.408 1437.95 984.598C1436.84 985.421 1435.74 986.253 1434.64 987.097C1434.19 987.419 1433.74 987.742 1433.27 988.075C1426.43 993.305 1422.6 1001.95 1421.2 1010.24C1421.13 1011.79 1421.11 1013.34 1421.1 1014.9C1421.1 1015.36 1421.1 1015.81 1421.1 1016.29C1421.1 1017.82 1421.1 1019.35 1421.1 1020.88C1421.09 1021.98 1421.09 1023.08 1421.09 1024.18C1421.08 1026.55 1421.08 1028.92 1421.08 1031.29C1421.07 1035.04 1421.06 1038.79 1421.05 1042.54C1421.04 1043.82 1421.04 1045.11 1421.03 1046.39C1421.03 1047.04 1421.03 1047.68 1421.03 1048.34C1421 1057.07 1420.98 1065.8 1420.97 1074.52C1420.96 1080.41 1420.94 1086.3 1420.92 1092.19C1420.9 1095.31 1420.89 1098.42 1420.9 1101.54C1420.9 1104.47 1420.89 1107.4 1420.87 1110.33C1420.87 1111.4 1420.87 1112.47 1420.87 1113.55C1420.93 1127.17 1420.93 1127.17 1416.42 1132.27C1411.66 1136.65 1406.27 1137.12 1399.97 1137.18C1394.68 1136.69 1391.16 1134.79 1387.42 1131C1384.27 1126.57 1384.2 1122.24 1384.23 1117C1384.22 1116.32 1384.22 1115.64 1384.22 1114.94C1384.21 1112.68 1384.21 1110.41 1384.22 1108.14C1384.21 1106.51 1384.21 1104.88 1384.21 1103.26C1384.2 1098.84 1384.2 1094.42 1384.2 1090C1384.2 1085.85 1384.19 1081.69 1384.19 1077.53C1384.18 1068.8 1384.18 1060.06 1384.19 1051.32C1384.19 1043.34 1384.18 1035.36 1384.17 1027.37C1384.16 1019.17 1384.15 1010.96 1384.15 1002.75C1384.15 998.148 1384.15 993.544 1384.14 988.94C1384.13 984.61 1384.14 980.28 1384.14 975.95C1384.15 974.363 1384.14 972.775 1384.14 971.188C1384.13 969.017 1384.14 966.847 1384.15 964.677C1384.14 964.052 1384.14 963.427 1384.13 962.783C1384.17 957.861 1385.13 953.566 1387.77 949.356C1392.55 944.748 1397.66 944.085 1404.06 944.042C1409.42 944.145 1413.31 945.785 1417.26 949.4C1420.31 954.713 1420.9 960.019 1421.2 966.057C1421.68 965.607 1422.16 965.158 1422.65 964.695C1426.9 960.781 1431.17 957.266 1436.05 954.134C1436.59 953.775 1437.14 953.416 1437.69 953.046C1458.07 940.146 1493.49 935.353 1513.87 950.233Z" fill="#ADADAD"/>
<path d="M348.418 1035.58C350.85 1036.19 350.85 1036.19 352.265 1038.29C352.504 1040.14 352.687 1041.96 352.839 1043.82C353.727 1052.47 356.603 1059.57 362.169 1066.35C362.521 1066.78 362.874 1067.22 363.238 1067.67C369.475 1074.59 379.119 1078.67 388.299 1079.32C388.933 1079.34 389.567 1079.37 390.22 1079.39C392.202 1079.73 392.843 1080.16 394.003 1081.78C394.268 1084.27 394.268 1084.27 394.003 1086.69C390.047 1089.3 384.936 1088.52 380.407 1087.66C367.863 1084.18 356.729 1077 350.142 1065.65C345.248 1056.64 342.599 1047.93 343.775 1037.59C345.254 1035.39 345.644 1035.48 348.418 1035.58Z" fill="#FAF9F8"/>
<path d="M358.632 1038.29C361.854 1038.68 361.854 1038.68 362.876 1039.7C363.07 1041.2 363.243 1042.71 363.407 1044.21C364.563 1052.4 368.271 1058.81 374.911 1063.94C379.834 1067.15 384.52 1068.64 390.394 1068.94C391.881 1069.15 391.881 1069.15 393.296 1070.56C392.903 1073.75 392.903 1073.75 391.881 1074.76C383.997 1075.65 376.033 1071.72 369.76 1067.33C363.353 1062.25 358.594 1054.05 357.217 1046.01C357.016 1043.88 356.863 1041.81 357.217 1039.7C357.684 1039.23 358.151 1038.77 358.632 1038.29Z" fill="#F7F6F4"/>
</g>
<defs>
<clipPath id="clip0_890_19">
<rect width="1414.87" height="275.624" fill="white" transform="translate(292.133 862.26)"/>
</clipPath>
</defs>
</svg>
