<svg width="265" height="265" viewBox="0 0 265 265" fill="none" xmlns="http://www.w3.org/2000/svg">
<g clip-path="url(#clip0_331_112)">
<mask id="mask0_331_112" style="mask-type:luminance" maskUnits="userSpaceOnUse" x="40" y="1" width="185" height="264">
<path d="M224.612 1H40V264.938H224.612V1Z" fill="white"/>
</mask>
<g mask="url(#mask0_331_112)">
<mask id="mask1_331_112" style="mask-type:luminance" maskUnits="userSpaceOnUse" x="39" y="1" width="186" height="264">
<path d="M224.638 1.42578H39.9746V264.512H224.638V1.42578Z" fill="white"/>
</mask>
<g mask="url(#mask1_331_112)">
<mask id="mask2_331_112" style="mask-type:luminance" maskUnits="userSpaceOnUse" x="39" y="1" width="186" height="264">
<path d="M224.638 1.42578H39.9746V264.512H224.638V1.42578Z" fill="white"/>
</mask>
<g mask="url(#mask2_331_112)">
<mask id="mask3_331_112" style="mask-type:luminance" maskUnits="userSpaceOnUse" x="39" y="1" width="186" height="264">
<path d="M224.638 1.42578H39.9746V264.512H224.638V1.42578Z" fill="white"/>
</mask>
<g mask="url(#mask3_331_112)">
<mask id="mask4_331_112" style="mask-type:luminance" maskUnits="userSpaceOnUse" x="39" y="1" width="186" height="264">
<path d="M224.638 1.42578H39.9746V264.512H224.638V1.42578Z" fill="white"/>
</mask>
<g mask="url(#mask4_331_112)">
<mask id="mask5_331_112" style="mask-type:luminance" maskUnits="userSpaceOnUse" x="39" y="1" width="186" height="264">
<path d="M224.638 1.42578H39.9746V264.512H224.638V1.42578Z" fill="white"/>
</mask>
<g mask="url(#mask5_331_112)">
<mask id="mask6_331_112" style="mask-type:luminance" maskUnits="userSpaceOnUse" x="39" y="1" width="186" height="264">
<path d="M224.638 1.42578H39.9746V264.512H224.638V1.42578Z" fill="white"/>
</mask>
<g mask="url(#mask6_331_112)">
<path d="M132.139 264.512C114.711 264.512 99.0713 260.423 85.2187 252.246C71.3662 244.113 60.4183 233.009 52.3749 218.933C44.3315 204.857 40.1981 188.993 39.9746 171.343V18.518C39.9746 13.3792 41.6057 9.24576 44.8677 6.11777C48.0851 2.98978 52.1514 1.42578 57.0669 1.42578C62.2057 1.42578 66.3391 2.98978 69.4671 6.11777C72.5951 9.24576 74.1591 13.3792 74.1591 18.518V109.006C81.979 99.6222 91.43 92.1821 102.512 86.6858C113.549 81.2341 125.659 78.5083 138.841 78.5083C155.152 78.5083 169.786 82.5747 182.745 90.7075C195.704 98.8849 205.937 109.945 213.444 123.886C220.906 137.873 224.638 153.692 224.638 171.343C224.638 188.993 220.571 204.857 212.439 218.933C204.261 233.009 193.246 244.113 179.394 252.246C165.541 260.423 149.789 264.512 132.139 264.512ZM132.139 234.349C143.533 234.349 153.699 231.601 162.637 226.105C171.574 220.653 178.679 213.124 183.952 203.516C189.18 193.909 191.794 183.184 191.794 171.343C191.794 159.277 189.18 148.553 183.952 139.169C178.679 129.785 171.574 122.345 162.637 116.849C153.699 111.397 143.533 108.671 132.139 108.671C120.967 108.671 110.868 111.397 101.842 116.849C92.7706 122.345 85.6656 129.785 80.5268 139.169C75.3879 148.553 72.8185 159.277 72.8185 171.343C72.8185 183.184 75.3879 193.909 80.5268 203.516C85.6656 213.124 92.7706 220.653 101.842 226.105C110.868 231.601 120.967 234.349 132.139 234.349Z" fill="#FE9338"/>
</g>
</g>
</g>
</g>
</g>
</g>
</g>
<mask id="mask7_331_112" style="mask-type:luminance" maskUnits="userSpaceOnUse" x="40" y="1" width="185" height="264">
<path d="M224.612 1H40V264.938H224.612V1Z" fill="white"/>
</mask>
<g mask="url(#mask7_331_112)">
<mask id="mask8_331_112" style="mask-type:luminance" maskUnits="userSpaceOnUse" x="39" y="1" width="186" height="264">
<path d="M224.638 1.42578H39.9746V264.512H224.638V1.42578Z" fill="white"/>
</mask>
<g mask="url(#mask8_331_112)">
<mask id="mask9_331_112" style="mask-type:luminance" maskUnits="userSpaceOnUse" x="39" y="1" width="186" height="264">
<path d="M224.638 1.42578H39.9746V264.512H224.638V1.42578Z" fill="white"/>
</mask>
<g mask="url(#mask9_331_112)">
<mask id="mask10_331_112" style="mask-type:luminance" maskUnits="userSpaceOnUse" x="39" y="1" width="186" height="264">
<path d="M224.638 1.42578H39.9746V264.512H224.638V1.42578Z" fill="white"/>
</mask>
<g mask="url(#mask10_331_112)">
<mask id="mask11_331_112" style="mask-type:luminance" maskUnits="userSpaceOnUse" x="39" y="1" width="186" height="264">
<path d="M224.638 1.42578H39.9746V264.512H224.638V1.42578Z" fill="white"/>
</mask>
<g mask="url(#mask11_331_112)">
<mask id="mask12_331_112" style="mask-type:luminance" maskUnits="userSpaceOnUse" x="39" y="1" width="186" height="264">
<path d="M224.638 1.42578H39.9746V264.512H224.638V1.42578Z" fill="white"/>
</mask>
<g mask="url(#mask12_331_112)">
<mask id="mask13_331_112" style="mask-type:luminance" maskUnits="userSpaceOnUse" x="39" y="1" width="186" height="264">
<path d="M224.638 1.42578H39.9746V264.512H224.638V1.42578Z" fill="white"/>
</mask>
<g mask="url(#mask13_331_112)">
<path d="M132.139 264.512C114.711 264.512 99.0713 260.423 85.2187 252.246C71.3662 244.113 60.4183 233.009 52.3749 218.933C44.3315 204.857 40.1981 188.993 39.9746 171.343V18.518C39.9746 13.3792 41.6057 9.24576 44.8677 6.11777C48.0851 2.98978 52.1514 1.42578 57.0669 1.42578C62.2057 1.42578 66.3391 2.98978 69.4671 6.11777C72.5951 9.24576 74.1591 13.3792 74.1591 18.518V109.006C81.979 99.6222 91.43 92.1821 102.512 86.6858C113.549 81.2341 125.659 78.5083 138.841 78.5083C155.152 78.5083 169.786 82.5747 182.745 90.7075C195.704 98.8849 205.937 109.945 213.444 123.886C220.906 137.873 224.638 153.692 224.638 171.343C224.638 188.993 220.571 204.857 212.439 218.933C204.261 233.009 193.246 244.113 179.394 252.246C165.541 260.423 149.789 264.512 132.139 264.512ZM132.139 234.349C143.533 234.349 153.699 231.601 162.637 226.105C171.574 220.653 178.679 213.124 183.952 203.516C189.18 193.909 191.794 183.184 191.794 171.343C191.794 159.277 189.18 148.553 183.952 139.169C178.679 129.785 171.574 122.345 162.637 116.849C153.699 111.397 143.533 108.671 132.139 108.671C120.967 108.671 110.868 111.397 101.842 116.849C92.7706 122.345 85.6656 129.785 80.5268 139.169C75.3879 148.553 72.8185 159.277 72.8185 171.343C72.8185 183.184 75.3879 193.909 80.5268 203.516C85.6656 213.124 92.7706 220.653 101.842 226.105C110.868 231.601 120.967 234.349 132.139 234.349Z" fill="#FE9338"/>
</g>
</g>
</g>
</g>
</g>
</g>
</g>
<path d="M132 227C162.376 227 187 202.376 187 172C187 141.624 162.376 117 132 117C101.624 117 77 141.624 77 172C77 202.376 101.624 227 132 227Z" fill="#5B3511"/>
<path d="M131.5 125C105.266 125 84 146.266 84 172.5C84 198.734 105.266 220 131.5 220C157.734 220 179 198.734 179 172.5C179 146.266 157.734 125 131.5 125Z" fill="white"/>
<path d="M132 132C109.909 132 92 149.909 92 172C92 194.091 109.909 212 132 212C154.091 212 172 194.091 172 172C172 149.909 154.091 132 132 132Z" fill="#5B3511"/>
<path d="M132 137C112.67 137 97 152.67 97 172C97 191.33 112.67 207 132 207C151.33 207 167 191.33 167 172C167 152.67 151.33 137 132 137Z" fill="white"/>
<path d="M132 142C115.431 142 102 155.431 102 172C102 188.569 115.431 202 132 202C148.569 202 162 188.569 162 172C162 155.431 148.569 142 132 142Z" fill="#5B3511"/>
<path d="M77 172C77 161.122 80.2257 150.488 86.2692 141.444C92.3126 132.399 100.902 125.349 110.952 121.187C121.002 117.024 132.061 115.935 142.73 118.057C153.399 120.179 163.199 125.417 170.891 133.109C178.583 140.801 183.821 150.601 185.943 161.27C188.065 171.939 186.976 182.998 182.813 193.048C178.651 203.098 171.601 211.687 162.556 217.731C153.512 223.774 142.878 227 132 227V172H77Z" fill="#5B3511"/>
<path d="M132 212C129.791 212 128 213.791 128 216C128 218.209 129.791 220 132 220C134.209 220 136 218.209 136 216C136 213.791 134.209 212 132 212Z" fill="white"/>
<path d="M88 168C85.7909 168 84 169.791 84 172C84 174.209 85.7909 176 88 176C90.2091 176 92 174.209 92 172C92 169.791 90.2091 168 88 168Z" fill="white"/>
<path d="M131.5 202C130.119 202 129 203.119 129 204.5C129 205.881 130.119 207 131.5 207C132.881 207 134 205.881 134 204.5C134 203.119 132.881 202 131.5 202Z" fill="white"/>
<path d="M99.5 170C98.1193 170 97 171.119 97 172.5C97 173.881 98.1193 175 99.5 175C100.881 175 102 173.881 102 172.5C102 171.119 100.881 170 99.5 170Z" fill="white"/>
</g>
<defs>
<clipPath id="clip0_331_112">
<rect width="265" height="265" fill="white"/>
</clipPath>
</defs>
</svg>
